# xmcd CD database file
#
# Track frame offsets:
#	150
#	11787
#	48098
#	90507
#	128277
#
# Disc length: 3055 seconds
#
# Revision: 0
# Processed by: cddbd v1.5.2PL0 Copyright (c) Steve Scherf et al.
# Submitted via: CDex 1.70beta2
#
DISCID=2c0bed05
DTITLE=Joe Bonamassa Band, Sam Bush Band and Crosby Loggins  - Garde Arts Center in New London, New London, Connecticut - 18 nov. 2007 [CD4/4)
DYEAR=2007
DGENRE=Blues
TTITLE0=Joe Bonamassa - ( Enter Sam Bush Band)
TTITLE1=Joe Bonamassa - I Got The Same Old Blues
TTITLE2=Joe Bonamassa - Blues Deluxe
TTITLE3=Joe Bonamassa - The Thrill Is Gone
TTITLE4=Joe Bonamassa - When You Gonna Wake Up?
EXTD=YEAR: 2007
EXTT0=
EXTT1=
EXTT2=
EXTT3=
EXTT4=
PLAYORDER=
